<svg width="16" height="19" viewBox="0 0 16 19" fill="none" xmlns="http://www.w3.org/2000/svg">
<path d="M8.79481 19C11.5005 19 13.9818 17.6713 15.626 15.483C16.5972 14.1904 15.5382 12.3019 14.0372 12.6107C11.2081 13.1926 8.59978 10.8566 8.59978 7.75705C8.59978 5.96006 9.49506 4.33215 10.9165 3.45845C12.2475 2.64018 11.9127 0.460453 10.4004 0.158717C9.87077 0.0532203 9.33335 9.48632e-05 8.79481 0C3.93843 0 0 4.25181 0 9.5C0 14.7458 3.93623 19 8.79481 19ZM8.79481 1.78125C9.24091 1.78125 9.67735 1.82582 10.1008 1.91032C8.21957 3.06676 6.95075 5.25172 6.95075 7.75705C6.95075 11.9819 10.5113 15.1492 14.3457 14.3604C13.0355 16.1041 11.0358 17.2188 8.79481 17.2188C4.84831 17.2188 1.64903 13.7629 1.64903 9.5C1.64903 5.23706 4.84831 1.78125 8.79481 1.78125Z" fill="#434343"/>
</svg>
