<svg width="20" height="20" viewBox="0 0 20 20" fill="none" xmlns="http://www.w3.org/2000/svg">
<path d="M14.1148 0H4.30603C3.21726 0 2.34429 0.917999 2.34429 2.06292V8.06601C2.91144 7.48711 3.57687 7.02527 4.30603 6.70449V2.06292H11.1721V8.06601C11.2016 8.09696 11.2408 8.11759 11.2702 8.14853C11.6037 8.49923 11.8882 8.88087 12.1236 9.28314H18.0383V16.5034H12.1236C11.8882 16.9056 11.6037 17.2873 11.2702 17.638C10.9171 17.999 10.5346 18.2981 10.1324 18.5663H18.0383C19.127 18.5663 20 17.6483 20 16.5034V6.18876L14.1148 0ZM13.1339 7.22022V1.54719L18.5287 7.22022H13.1339ZM6.75821 8.25168C4.30603 8.25168 2.34429 10.3146 2.34429 12.8932C2.34429 13.8009 2.5895 14.657 3.02109 15.3687L0 18.5663L1.36341 20L4.42374 16.8334C5.10054 17.2769 5.90485 17.5348 6.75821 17.5348C9.2104 17.5348 11.1721 15.4719 11.1721 12.8932C11.1721 10.3146 9.2104 8.25168 6.75821 8.25168ZM6.75821 15.4719C6.10786 15.4719 5.48413 15.2002 5.02426 14.7166C4.56439 14.233 4.30603 13.5771 4.30603 12.8932C4.30603 12.2093 4.56439 11.5535 5.02426 11.0699C5.48413 10.5863 6.10786 10.3146 6.75821 10.3146C7.40857 10.3146 8.0323 10.5863 8.49217 11.0699C8.95204 11.5535 9.2104 12.2093 9.2104 12.8932C9.2104 13.5771 8.95204 14.233 8.49217 14.7166C8.0323 15.2002 7.40857 15.4719 6.75821 15.4719Z"/>
</svg>
