<svg width="20" height="20" viewBox="0 0 20 20" fill="none" xmlns="http://www.w3.org/2000/svg">
<path d="M3.15307 8.98957L10.0161 16.9727L16.8791 8.98957C17.4859 8.28376 17.8268 7.32648 17.8268 6.32831C17.8268 5.33015 17.4859 4.37286 16.8791 3.66706C16.2723 2.96125 15.4494 2.56473 14.5912 2.56473C13.7331 2.56473 12.9102 2.96125 12.3034 3.66706L10.0161 6.32769L7.72877 3.66831C7.12045 2.97197 6.30022 2.58345 5.44675 2.58737C4.59329 2.5913 3.77573 2.98735 3.17216 3.68926C2.56859 4.39118 2.22791 5.34208 2.22434 6.33485C2.22076 7.32761 2.55458 8.2818 3.15307 8.98957ZM9.25364 1.89205L10.0161 2.77892L10.7785 1.89205C11.2784 1.30544 11.873 0.839465 12.5281 0.520872C13.1833 0.20228 13.8861 0.037345 14.5961 0.0355363C15.3062 0.0337276 16.0096 0.195081 16.6659 0.510333C17.3223 0.825585 17.9186 1.28853 18.4207 1.87258C18.9228 2.45663 19.3208 3.1503 19.5918 3.91375C19.8628 4.6772 20.0015 5.49539 20 6.32137C19.9984 7.14734 19.8566 7.96483 19.5827 8.72689C19.3089 9.48895 18.9083 10.1806 18.404 10.7621L10.7796 19.6321C10.6794 19.7487 10.5605 19.8412 10.4296 19.9044C10.2987 19.9675 10.1583 20 10.0166 20C9.8749 20 9.73457 19.9675 9.60365 19.9044C9.47273 19.8412 9.3538 19.7487 9.25364 19.6321L1.62819 10.7633C1.11704 10.1837 0.709911 9.49179 0.430432 8.72772C0.150953 7.96365 0.00468432 7.14264 0.000110684 6.3123C-0.00446296 5.48196 0.132749 4.65883 0.403789 3.89066C0.674828 3.12249 1.0743 2.42456 1.57903 1.83737C2.08376 1.25018 2.6837 0.785414 3.34405 0.470029C4.0044 0.154644 4.71201 -0.00507956 5.42584 0.000123127C6.13968 0.00532581 6.84551 0.175351 7.50241 0.500337C8.15932 0.825323 8.7542 1.2988 9.25256 1.8933L9.25364 1.89205Z"/>
</svg>
