<svg width="20" height="17" viewBox="0 0 20 17" fill="none" xmlns="http://www.w3.org/2000/svg">
<path d="M12.381 12.963V14.8148C12.381 15.306 12.1803 15.777 11.8231 16.1243C11.4658 16.4716 10.9814 16.6667 10.4762 16.6667H1.90476C1.39959 16.6667 0.915104 16.4716 0.557892 16.1243C0.20068 15.777 0 15.306 0 14.8148V1.85185C0 1.36071 0.20068 0.889685 0.557892 0.542395C0.915104 0.195105 1.39959 0 1.90476 0H10.4762C10.9814 0 11.4658 0.195105 11.8231 0.542395C12.1803 0.889685 12.381 1.36071 12.381 1.85185V3.70371H10.4762V1.85185H1.90476V14.8148H10.4762V12.963H12.381ZM14.7619 3.24074L13.4152 4.55001L16.3543 7.40742H6.66667V9.25927H16.3543L13.4152 12.1167L14.7619 13.4259L20 8.33334L14.7619 3.24074Z"/>
</svg>
