 <svg
                width="20"
                height="20"
                viewBox="0 0 20 20"

                xmlns="http://www.w3.org/2000/svg"
              >
                <path
                  fill-rule="evenodd"
                  clip-rule="evenodd"
                  d="M13.6365 7.27271C13.6365 8.23713 13.2534 9.16205 12.5714 9.84399C11.8895 10.5259 10.9646 10.9091 10.0001 10.9091C9.03571 10.9091 8.11079 10.5259 7.42884 9.84399C6.74689 9.16205 6.36377 8.23713 6.36377 7.27271C6.36377 6.30828 6.74689 5.38336 7.42884 4.70142C8.11079 4.01947 9.03571 3.63635 10.0001 3.63635C10.9646 3.63635 11.8895 4.01947 12.5714 4.70142C13.2534 5.38336 13.6365 6.30828 13.6365 7.27271ZM11.8183 7.27271C11.8183 7.75492 11.6268 8.21738 11.2858 8.55835C10.9448 8.89932 10.4823 9.09088 10.0001 9.09088C9.51792 9.09088 9.05546 8.89932 8.71448 8.55835C8.37351 8.21738 8.18195 7.75492 8.18195 7.27271C8.18195 6.79049 8.37351 6.32803 8.71448 5.98706C9.05546 5.64609 9.51792 5.45453 10.0001 5.45453C10.4823 5.45453 10.9448 5.64609 11.2858 5.98706C11.6268 6.32803 11.8183 6.79049 11.8183 7.27271Z"

                />
                <path
                  fill-rule="evenodd"
                  clip-rule="evenodd"
                  d="M10 0C4.47727 0 0 4.47727 0 10C0 15.5227 4.47727 20 10 20C15.5227 20 20 15.5227 20 10C20 4.47727 15.5227 0 10 0ZM1.81818 10C1.81818 11.9 2.46636 13.6491 3.55273 15.0382C4.31566 14.0363 5.29991 13.2243 6.42858 12.6657C7.55724 12.1072 8.79977 11.8171 10.0591 11.8182C11.3021 11.817 12.529 12.0996 13.6463 12.6443C14.7636 13.1891 15.7418 13.9817 16.5064 14.9618C17.294 13.9287 17.8244 12.7229 18.0535 11.4442C18.2827 10.1654 18.204 8.85049 17.8241 7.60817C17.4441 6.36585 16.7738 5.23186 15.8686 4.30003C14.9634 3.36821 13.8493 2.66533 12.6185 2.24955C11.3877 1.83378 10.0756 1.71707 8.79078 1.90907C7.50593 2.10107 6.28526 2.59627 5.22979 3.35369C4.17432 4.11111 3.31437 5.10897 2.72112 6.26472C2.12786 7.42047 1.81835 8.70088 1.81818 10ZM10 18.1818C8.12177 18.1846 6.30024 17.5385 4.84364 16.3527C5.42994 15.5134 6.21031 14.8281 7.11836 14.3552C8.02641 13.8822 9.03526 13.6356 10.0591 13.6364C11.0701 13.6356 12.0668 13.876 12.9663 14.3377C13.8658 14.7993 14.6422 15.469 15.2309 16.2909C13.763 17.5152 11.9114 18.1845 10 18.1818Z"

                />
</svg>