<svg width="10" height="10" viewBox="0 0 10 10" fill="#EFB305" xmlns="http://www.w3.org/2000/svg">
<path d="M4.77462 7.30646L2.34162 8.52923L2.80129 5.96793L2.84945 5.69956L2.64993 5.51373L0.697868 3.69558L3.41421 3.31818L3.67084 3.28252L3.78969 3.05229L5.00008 0.707593L6.21047 3.05229L6.32932 3.28252L6.58596 3.31818L9.30182 3.69551L7.35018 5.51378L7.15072 5.69961L7.19888 5.96793L7.65863 8.52965L5.22359 7.30642L4.99909 7.19365L4.77462 7.30646ZM9.55168 3.46272L9.55142 3.46296L9.55168 3.46272ZM7.71762 8.85839C7.71762 8.85837 7.71762 8.85835 7.71761 8.85833L7.71762 8.85839Z"  stroke="#EFB305"/>
</svg>
