<svg width="26" height="25" viewBox="0 0 26 25" fill="none" xmlns="http://www.w3.org/2000/svg">
<path d="M5.6325 24.4627L5.63269 24.4635C5.51525 24.5244 5.39535 24.5069 5.29393 24.4244C5.18889 24.339 5.11601 24.1884 5.14784 24.003L5.14789 24.0027L6.49663 16.1196L6.54088 15.861L6.35321 15.6777L0.628691 10.0848C0.628654 10.0848 0.628618 10.0848 0.628582 10.0847C0.509595 9.96818 0.472214 9.79635 0.519811 9.63248C0.567224 9.46925 0.678971 9.37267 0.810167 9.35375L0.810917 9.35365L8.77015 8.19368L9.03049 8.15574L9.14665 7.91969L12.6956 0.708401C12.7707 0.555811 12.8924 0.5 13.0002 0.5C13.108 0.5 13.2296 0.555777 13.3048 0.708263C13.3048 0.708309 13.3048 0.708355 13.3049 0.708401L16.8538 7.91969L16.9699 8.15574L17.2303 8.19368L25.1895 9.35365L25.1903 9.35375C25.3215 9.37267 25.4331 9.46924 25.4803 9.6322C25.5277 9.79573 25.4903 9.96752 25.3707 10.0843L25.3704 10.0846L19.6472 15.6777L19.4596 15.8611L19.5038 16.1196L20.8525 24.0027L20.8526 24.003C20.8844 24.1884 20.8115 24.339 20.7065 24.4244C20.6046 24.5073 20.4841 24.5246 20.3662 24.4627C20.3662 24.4626 20.3662 24.4626 20.3661 24.4626C20.3661 24.4626 20.366 24.4625 20.3659 24.4625L13.2309 20.7028L12.9977 20.5799L12.7646 20.7028L5.6325 24.4627Z" fill="white" stroke="#EFB305"/>
</svg>
