<svg width="11" height="8" viewBox="0 0 11 8" fill="none" xmlns="http://www.w3.org/2000/svg">
<path d="M9.73569 0.207011C9.80394 0.141469 9.88539 0.0894006 9.97528 0.0538547C10.0652 0.0183089 10.1617 0 10.2592 0C10.3567 0 10.4532 0.0183089 10.5431 0.0538547C10.633 0.0894006 10.7145 0.141469 10.7827 0.207011C11.0687 0.47903 11.0727 0.918591 10.7927 1.19532L4.87959 7.7746C4.81246 7.84399 4.73099 7.89976 4.64017 7.93849C4.54934 7.97723 4.45108 7.99812 4.35139 7.99988C4.25169 8.00164 4.15267 7.98424 4.06037 7.94874C3.96806 7.91324 3.88443 7.86039 3.81457 7.79343L0.216496 4.36166C0.0777306 4.22846 0 4.04935 0 3.8628C0 3.67625 0.0777306 3.49714 0.216496 3.36394C0.284744 3.2984 0.366198 3.24633 0.45609 3.21078C0.545982 3.17524 0.642504 3.15693 0.740007 3.15693C0.83751 3.15693 0.934033 3.17524 1.02392 3.21078C1.11382 3.24633 1.19527 3.2984 1.26352 3.36394L4.31558 6.2752L9.71569 0.227719C9.72191 0.220444 9.72859 0.213529 9.73569 0.207011Z" fill="#1556F7"/>
</svg>
