<svg width="16" height="17" viewBox="0 0 16 17" fill="none" xmlns="http://www.w3.org/2000/svg">
<path d="M13.6 17H1.7C1.24913 17 0.81673 16.8209 0.497918 16.5021C0.179106 16.1833 0 15.7509 0 15.3V3.4C0 2.94913 0.179106 2.51673 0.497918 2.19792C0.81673 1.87911 1.24913 1.7 1.7 1.7H3.4V0H5.1V1.7H10.2V0H11.9V1.7H13.6C14.0509 1.7 14.4833 1.87911 14.8021 2.19792C15.1209 2.51673 15.3 2.94913 15.3 3.4V15.3C15.3 15.7509 15.1209 16.1833 14.8021 16.5021C14.4833 16.8209 14.0509 17 13.6 17ZM1.7 6.8V15.3H13.6V6.8H1.7ZM1.7 3.4V5.1H13.6V3.4H1.7ZM11.9 13.6H10.2V11.9H11.9V13.6ZM8.49999 13.6H6.79999V11.9H8.49999V13.6ZM5.1 13.6H3.4V11.9H5.1V13.6ZM11.9 10.2H10.2V8.5H11.9V10.2ZM8.49999 10.2H6.79999V8.5H8.49999V10.2ZM5.1 10.2H3.4V8.5H5.1V10.2Z" fill="#434343"/>
</svg>
